<?xml version="1.0" standalone="no"?>
<svg viewBox="0 0 200 200" xmlns="http://www.w3.org/2000/svg" height="800px" width="1000px">
  <path fill-opacity="0.6" fill="#8A3FFC" d="M44.8,-56.1C57.6,-42.7,67,-28.1,69.9,-12.2C72.9,3.7,69.4,20.9,60.5,33.7C51.6,46.5,37.4,55,21.6,61.7C5.9,68.5,-11.3,73.5,-26.6,69.5C-41.9,65.5,-55.3,52.6,-56.9,38.4C-58.5,24.2,-48.3,8.7,-45.5,-8.1C-42.6,-25,-47.1,-43.2,-40.8,-57.7C-34.4,-72.2,-17.2,-82.9,-0.6,-82.2C16,-81.5,32.1,-69.4,44.8,-56.1Z" transform="translate(100 100)" />
</svg>

